<?xml version="1.0" encoding="UTF-8" standalone="no"?>
<svg
   xmlns:dc="http://purl.org/dc/elements/1.1/"
   xmlns:cc="http://creativecommons.org/ns#"
   xmlns:rdf="http://www.w3.org/1999/02/22-rdf-syntax-ns#"
   xmlns:svg="http://www.w3.org/2000/svg"
   xmlns="http://www.w3.org/2000/svg"
   viewBox="0 0 1052.3625 293.16876"
   height="293.16876"
   width="1052.3625"
   xml:space="preserve"
   version="1.1"
   id="svg2"><metadata
     id="metadata8"><rdf:RDF><cc:Work
         rdf:about=""><dc:format>image/svg+xml</dc:format><dc:type
           rdf:resource="http://purl.org/dc/dcmitype/StillImage" /></cc:Work></rdf:RDF></metadata><defs
     id="defs6" /><g
     transform="matrix(1.25,0,0,-1.25,0,293.16875)"
     id="g10"><g
       transform="translate(25.9844,141.6909)"
       id="g12"><path
         id="path14"
         style="fill:#c12421;fill-opacity:1;fill-rule:nonzero;stroke:none"
         d="M 0,0 0,-64.268 31.918,-38.05 0,0 Z m -19.851,-106.252 0,160.789 79.873,-95.188 -79.873,-65.601 z" /></g><g
       transform="translate(25.9844,141.6909)"
       id="g16"><path
         id="path18"
         style="fill:none;stroke:#d82926;stroke-width:1;stroke-linecap:butt;stroke-linejoin:miter;stroke-miterlimit:10;stroke-dasharray:none;stroke-opacity:1"
         d="M 0,0 0,-64.268 31.918,-38.05 0,0 Z m -19.851,-106.252 0,160.789 79.873,-95.188 -79.873,-65.601 z" /></g><g
       transform="translate(235.8564,42.458)"
       id="g20"><path
         id="path22"
         style="fill:#c12421;fill-opacity:1;fill-rule:nonzero;stroke:none"
         d="m 0,0 -19.851,-7.02 0,124.866 L 0,95.321 0,0 Z" /></g><g
       transform="translate(235.8564,42.458)"
       id="g24"><path
         id="path26"
         style="fill:none;stroke:#d82926;stroke-width:1;stroke-linecap:butt;stroke-linejoin:miter;stroke-miterlimit:10;stroke-dasharray:none;stroke-opacity:1"
         d="m 0,0 -19.851,-7.02 0,124.866 L 0,95.321 0,0 Z" /></g><g
       transform="translate(371.748,106.3369)"
       id="g28"><path
         id="path30"
         style="fill:#c12421;fill-opacity:1;fill-rule:nonzero;stroke:none"
         d="m 0,0 35.802,-11.786 -55.657,66.326 0,-125.525 19.855,16.871 0,14.305 16.173,0 0,19.831 L 0,-19.978 0,0 Z" /></g><g
       transform="translate(371.748,106.3369)"
       id="g32"><path
         id="path34"
         style="fill:none;stroke:#d82926;stroke-width:1;stroke-linecap:butt;stroke-linejoin:miter;stroke-miterlimit:10;stroke-dasharray:none;stroke-opacity:1"
         d="m 0,0 35.802,-11.786 -55.657,66.326 0,-125.525 19.855,16.871 0,14.305 16.173,0 0,19.831 L 0,-19.978 0,0 Z" /></g><g
       transform="translate(628.8574,98.3447)"
       id="g36"><path
         id="path38"
         style="fill:#c12421;fill-opacity:1;fill-rule:nonzero;stroke:none"
         d="M 0,0 25.49,-30.394 49.177,-0.279 23.593,30.207 0,0 Z M 25.991,-61.867 -25.551,-0.45 23.038,61.746 74.74,0.127 25.991,-61.867 Z" /></g><g
       transform="translate(628.8574,98.3447)"
       id="g40"><path
         id="path42"
         style="fill:none;stroke:#d82926;stroke-width:1;stroke-linecap:butt;stroke-linejoin:miter;stroke-miterlimit:10;stroke-dasharray:none;stroke-opacity:1"
         d="M 0,0 25.49,-30.394 49.177,-0.279 23.593,30.207 0,0 Z M 25.991,-61.867 -25.551,-0.45 23.038,61.746 74.74,0.127 25.991,-61.867 Z" /></g><g
       transform="translate(690.3477,177.0649)"
       id="g44"><path
         id="path46"
         style="fill:#c12421;fill-opacity:1;fill-rule:nonzero;stroke:none"
         d="m 0,0 51.509,-61.365 52.33,66.979 -99.095,0 L 0,0 Z m 43.377,-165.791 53.148,19.878 -44.669,52.755 -61.317,-78.466 -13.039,15.545 61.504,78.728 -64.53,76.895 20.212,25.878 149.824,0 -79.962,-102.345 74.516,-88.793 -95.687,-0.075 z" /></g><g
       transform="translate(690.3477,177.0649)"
       id="g48"><path
         id="path50"
         style="fill:none;stroke:#d82926;stroke-width:1;stroke-linecap:butt;stroke-linejoin:miter;stroke-miterlimit:10;stroke-dasharray:none;stroke-opacity:1"
         d="m 0,0 51.509,-61.365 52.33,66.979 -99.095,0 L 0,0 Z m 43.377,-165.791 53.148,19.878 -44.669,52.755 -61.317,-78.466 -13.039,15.545 61.504,78.728 -64.53,76.895 20.212,25.878 149.824,0 -79.962,-102.345 74.516,-88.793 -95.687,-0.075 z" /></g><g
       transform="translate(151.6035,148.0771)"
       id="g52"><path
         id="path54"
         style="fill:#c12421;fill-opacity:1;fill-rule:nonzero;stroke:none"
         d="M 0,0 47.75,65.917 -28.051,2.323 19.258,-53.002 -19.448,-111.398 47.341,-55.357 0,0 Z" /></g><g
       transform="translate(151.6035,148.0771)"
       id="g56"><path
         id="path58"
         style="fill:none;stroke:#d82926;stroke-width:1;stroke-linecap:butt;stroke-linejoin:miter;stroke-miterlimit:10;stroke-dasharray:none;stroke-opacity:1"
         d="M 0,0 47.75,65.917 -28.051,2.323 19.258,-53.002 -19.448,-111.398 47.341,-55.357 0,0 Z" /></g><g
       transform="translate(168.6816,202.5269)"
       id="g60"><path
         id="path62"
         style="fill:#c12421;fill-opacity:1;fill-rule:nonzero;stroke:none"
         d="m 0,0 -140.873,-0.04 86.55,-103.145 -104.939,-88.067 102.073,0 -47.546,19.844 78.375,65.771 -71.946,85.749 74.655,0.04 L 0,0 Z" /></g><g
       transform="translate(168.6816,202.5269)"
       id="g64"><path
         id="path66"
         style="fill:none;stroke:#d82926;stroke-width:1;stroke-linecap:butt;stroke-linejoin:miter;stroke-miterlimit:10;stroke-dasharray:none;stroke-opacity:1"
         d="m 0,0 -140.873,-0.04 86.55,-103.145 -104.939,-88.067 102.073,0 -47.546,19.844 78.375,65.771 -71.946,85.749 74.655,0.04 L 0,0 Z" /></g><g
       transform="translate(190.3799,182.6792)"
       id="g68"><path
         id="path70"
         style="fill:#c12421;fill-opacity:1;fill-rule:nonzero;stroke:none"
         d="m 0,0 121.039,0 0.006,-90.317 -57.066,68.042 0,-124.966 19.85,7.033 0,63.39 57.066,-68.051 0,164.717 -126.989,0 L 0,0 Z" /></g><g
       transform="translate(190.3799,182.6792)"
       id="g72"><path
         id="path74"
         style="fill:none;stroke:#d82926;stroke-width:1;stroke-linecap:butt;stroke-linejoin:miter;stroke-miterlimit:10;stroke-dasharray:none;stroke-opacity:1"
         d="m 0,0 121.039,0 0.006,-90.317 -57.066,68.042 0,-124.966 19.85,7.033 0,63.39 57.066,-68.051 0,164.717 -126.989,0 L 0,0 Z" /></g><g
       transform="translate(464.2969,202.5269)"
       id="g76"><path
         id="path78"
         style="fill:#c12421;fill-opacity:1;fill-rule:nonzero;stroke:none"
         d="m 0,0 -114.957,-0.037 95.965,-114.38 -91.853,-76.835 105.897,0 -51.226,19.844 65.164,54.526 -81.38,96.998 56.875,0.036 L 0,0 Z" /></g><g
       transform="translate(464.2969,202.5269)"
       id="g80"><path
         id="path82"
         style="fill:none;stroke:#d82926;stroke-width:1;stroke-linecap:butt;stroke-linejoin:miter;stroke-miterlimit:10;stroke-dasharray:none;stroke-opacity:1"
         d="m 0,0 -114.957,-0.037 95.965,-114.38 -91.853,-76.835 105.897,0 -51.226,19.844 65.164,54.526 -81.38,96.998 56.875,0.036 L 0,0 Z" /></g><g
       transform="translate(660.7354,202.4868)"
       id="g84"><path
         id="path86"
         style="fill:#c12421;fill-opacity:1;fill-rule:nonzero;stroke:none"
         d="m 0,0 -162.684,0.04 -6.343,-19.848 78.885,0 0,-146.658 19.834,7.032 0,139.626 38.162,0 L -50.028,-61.962 0,0 Z" /></g><g
       transform="translate(660.7354,202.4868)"
       id="g88"><path
         id="path90"
         style="fill:none;stroke:#d82926;stroke-width:1;stroke-linecap:butt;stroke-linejoin:miter;stroke-miterlimit:10;stroke-dasharray:none;stroke-opacity:1"
         d="m 0,0 -162.684,0.04 -6.343,-19.848 78.885,0 0,-146.658 19.834,7.032 0,139.626 38.162,0 L -50.028,-61.962 0,0 Z" /></g><g
       transform="translate(491.127,217.3101)"
       id="g92"><path
         id="path94"
         style="fill:#c12421;fill-opacity:1;fill-rule:nonzero;stroke:none"
         d="m 0,0 -44.082,-56.423 43.901,-52.317 0,-65.364 20.566,-7.768 0,60.041 20.666,0 0,-60.041 20.573,7.768 0,72.848 -26.272,0 18.979,36.954 -38.76,-31.215 -33.384,39.784 L 0,0 Z" /></g><g
       transform="translate(491.127,217.3101)"
       id="g96"><path
         id="path98"
         style="fill:none;stroke:#d82926;stroke-width:1;stroke-linecap:butt;stroke-linejoin:miter;stroke-miterlimit:10;stroke-dasharray:none;stroke-opacity:1"
         d="m 0,0 -44.082,-56.423 43.901,-52.317 0,-65.364 20.566,-7.768 0,60.041 20.666,0 0,-60.041 20.573,7.768 0,72.848 -26.272,0 18.979,36.954 -38.76,-31.215 -33.384,39.784 L 0,0 Z" /></g><g
       transform="translate(29.4121,84.6758)"
       id="g100"><path
         id="path102"
         style="fill:#f79456;fill-opacity:1;fill-rule:nonzero;stroke:none"
         d="M 0,0 0,47.593 23.638,19.418 0,0 Z m -26.706,120.971 0,-9.419 0,-160.789 0,-7.253 5.604,4.6 79.873,65.605 2.678,2.197 -2.23,2.655 -79.871,95.188 -6.054,7.216 z M -3.428,-7.253 28.49,18.965 l -31.918,38.05 0,-64.268 m -19.85,118.805 79.873,-95.188 -79.873,-65.601 0,160.789 z" /></g><g
       transform="translate(212.5762,169.3828)"
       id="g104"><path
         id="path106"
         style="fill:#f79456;fill-opacity:1;fill-rule:nonzero;stroke:none"
         d="m 0,0 0,-9.079 0,-124.865 0,-4.847 4.572,1.613 19.849,7.019 2.287,0.808 0,2.426 0,95.321 0,1.296 -0.857,0.971 L 6.002,-6.81 0,0 Z m 3.429,-9.079 19.851,-22.525 0,-95.321 -19.851,-7.019 0,124.865 z" /></g><g
       transform="translate(348.4629,170.2964)"
       id="g108"><path
         id="path110"
         style="fill:#f79456;fill-opacity:1;fill-rule:nonzero;stroke:none"
         d="m 0,0 0,-9.419 0,-125.526 0,-7.413 5.649,4.801 19.856,16.871 1.21,1.022 0,1.59 0,10.875 12.743,0 3.43,0 0,3.431 0,19.831 0,3.431 -3.43,0 -12.743,0 0,11.808 31.301,-10.304 11.442,-3.769 -7.745,9.227 L 6.054,-7.216 0,0 Z m 3.43,-9.419 55.657,-66.327 -35.802,11.787 0,-19.978 16.173,0 0,-19.831 -16.173,0 0,-14.306 -19.855,-16.871 0,125.526 z" /></g><g
       transform="translate(633.2705,98.4209)"
       id="g112"><path
         id="path114"
         style="fill:#f79456;fill-opacity:1;fill-rule:nonzero;stroke:none"
         d="M 0,0 19.273,24.682 40.344,-0.426 20.99,-25.03 0,0 Z m 18.531,67.118 -2.605,-3.339 -48.589,-62.195 -1.714,-2.187 1.788,-2.125 51.541,-61.42 2.713,-3.234 2.606,3.32 48.746,61.993 1.73,2.189 -1.798,2.134 -51.698,61.619 -2.72,3.245 z M 21.077,-30.47 44.764,-0.355 19.18,30.131 -4.413,-0.076 21.077,-30.47 M 18.625,61.669 70.327,0.051 21.578,-61.943 -29.964,-0.526 18.625,61.669 Z" /></g><g
       transform="translate(834.8571,205.9146)"
       id="g116"><path
         id="path118"
         style="fill:#f79456;fill-opacity:1;fill-rule:nonzero;stroke:none"
         d="m 0,0 -149.824,0 -1.674,0 -1.026,-1.318 -20.212,-25.878 -1.713,-2.186 1.788,-2.127 62.742,-74.769 -59.79,-76.539 -1.713,-2.184 1.786,-2.129 13.04,-15.545 2.719,-3.24 2.606,3.334 58.724,75.141 38.797,-45.815 -48.578,-18.168 -17.797,-6.658 18.993,0.014 95.687,0.073 7.346,0.008 -4.72,5.625 -72.73,86.666 L 2.699,-5.538 7.033,0 0,0 Z m -167.009,-184.928 61.504,78.727 -64.531,76.895 20.212,25.878 149.824,0 -79.961,-102.345 74.516,-88.793 -95.687,-0.074 53.148,19.878 -44.669,52.754 -61.317,-78.465 -13.039,15.545 z m 27.243,161.693 -4.743,-5.615 51.508,-61.365 52.33,66.98 -99.095,0 z m -0.261,-5.621 1.855,2.193 90.469,0 -45.391,-58.104 -46.933,55.911 z" /></g><g
       transform="translate(197.1504,216.6201)"
       id="g120"><path
         id="path122"
         style="fill:#f79456;fill-opacity:1;fill-rule:nonzero;stroke:none"
         d="m 0,0 -75.802,-63.596 -2.65,-2.223 2.25,-2.631 45.627,-53.356 -37.28,-56.242 -13.093,-19.754 18.156,15.234 66.791,56.041 2.65,2.223 -2.25,2.632 -45.583,53.303 L 4.979,-4.637 21.263,17.842 0,0 Z m -26.289,-121.545 -47.308,55.326 75.8,63.593 -47.75,-65.917 47.341,-55.357 -66.789,-56.041 38.706,58.396 z" /></g><g
       transform="translate(168.6816,205.9542)"
       id="g124"><path
         id="path126"
         style="fill:#f79456;fill-opacity:1;fill-rule:nonzero;stroke:none"
         d="m 0,0 -140.873,-0.04 -7.35,-0.003 4.726,-5.628 84.342,-100.519 -102.31,-85.864 -7.217,-6.052 9.42,0 102.072,0 17.118,0 -15.798,6.597 -42.346,17.673 74.059,62.149 2.629,2.201 -2.207,2.626 -67.222,80.118 67.31,0.039 1.245,0 0.954,0.804 L 2.203,-6.053 9.423,0.004 0,0 Z M -54.323,-106.612 -140.873,-3.468 0,-3.427 l -23.651,-19.848 -74.655,-0.04 71.946,-85.75 -78.376,-65.77 47.546,-19.845 -102.072,0 104.939,88.068 z" /></g><g
       transform="translate(334.7041,205.9546)"
       id="g128"><path
         id="path130"
         style="fill:#f79456;fill-opacity:1;fill-rule:nonzero;stroke:none"
         d="m 0,0 -3.43,0 -126.988,0 -1.786,0 -1.024,-1.46 -13.906,-19.846 -3.78,-5.397 6.59,0 117.609,0 0.007,-77.462 -51.007,60.82 -6.059,7.22 0,-9.425 0,-124.966 0,-4.854 4.575,1.62 19.849,7.033 2.284,0.808 0,2.425 0,53.964 51.009,-60.829 6.057,-7.219 0,9.424 L 0,-3.428 0,0 Z m -3.43,-3.428 0,-164.716 -57.065,68.051 0,-63.391 -19.85,-7.032 0,124.966 57.066,-68.042 -0.007,90.317 -121.038,0 13.906,19.847 126.988,0 z" /></g><g
       transform="translate(471.3291,205.958)"
       id="g132"><path
         id="path134"
         style="fill:#f79456;fill-opacity:1;fill-rule:nonzero;stroke:none"
         d="m 0,0 -7.032,-0.003 -114.957,-0.037 -7.35,-0.003 4.721,-5.628 93.759,-111.75 -89.218,-74.63 -7.242,-6.059 9.442,0 105.897,0 18.344,0 -17.105,6.624 -45.809,17.747 60.709,50.796 2.633,2.202 -2.212,2.629 -76.653,91.37 49.526,0.035 1.674,0 1.025,1.315 L -4.333,-5.544 0,0 Z m -7.032,-3.431 -15.515,-19.848 -56.875,-0.036 81.38,-96.998 -65.164,-54.526 51.226,-19.845 -105.897,0 91.853,76.835 -95.965,114.381 114.957,0.037 z" /></g><g
       transform="translate(495.5469,205.9546)"
       id="g136"><path
         id="path138"
         style="fill:#f79456;fill-opacity:1;fill-rule:nonzero;stroke:none"
         d="m 0,0 -0.766,-2.384 -6.34,-19.845 -1.427,-4.474 4.694,0 75.455,0 0,-143.231 0,-4.855 4.577,1.621 19.834,7.032 2.286,0.812 0,2.422 0,136.199 29.552,0 -15.859,-37.387 -9.568,-22.558 15.388,19.065 50.028,61.962 4.507,5.578 -7.173,0.003 L 2.505,0 0,0 Z m 2.505,-3.428 162.683,-0.04 -50.028,-61.962 17.883,42.155 -38.162,0 0,-139.627 -19.834,-7.032 0,146.659 -78.886,0 6.344,19.847 z" /></g><g
       transform="translate(488.4264,219.4191)"
       id="g140"><path
         id="path142"
         style="fill:#f79456;fill-opacity:1;fill-rule:nonzero;stroke:none"
         d="m 0,0 -44.077,-56.422 -1.718,-2.187 1.79,-2.126 43.094,-51.363 0,-64.115 0,-2.369 2.218,-0.838 20.566,-7.767 4.64,-1.754 0,4.96 0,56.614 13.811,0 0,-56.614 0,-4.96 4.64,1.754 20.573,7.767 2.219,0.838 0,2.369 0,72.848 0,3.429 -3.431,0 -20.653,0 16.407,31.958 7.382,14.369 L 54.883,-63.738 18.74,-92.847 -11.271,-57.085 5.967,-3.154 11.807,15.116 0,0 Z m 2.52,-176.213 0,65.365 -43.901,52.317 44.082,56.422 -17.814,-55.733 33.385,-39.784 38.759,31.215 -18.979,-36.954 26.273,0 0,-72.848 -20.573,-7.768 0,60.041 -20.667,0 0,-60.041 -20.565,7.768 z" /></g></g></svg>